<?xml version="1.0" encoding="UTF-8" standalone="no"?>
<svg
   viewBox="0 0 473.94922 394.20898"
   version="1.1"
   id="svg1"
   width="473.94922"
   height="394.20898"
   xmlns="http://www.w3.org/2000/svg"
   xmlns:svg="http://www.w3.org/2000/svg">
  <defs
     id="defs1" />
  <path
     id="path1"
     d="M 149.74999,5.6152823e-4 117.14839,32.529562 l 21.3008,21.17 32.5,-32.51 z M 183.64839,33.959562 l -9.8984,9.91 123,123.040998 9.8984,-9.901 z m 159.4004,18.06 c -3.7,0 -7.4004,0.101 -10.9004,0.301 -31.9,1.78 -56.6988,11.759 -78.2988,26.389 l 65.5,65.598998 c 3.5,7.3 52,96.201 65.5,123.301 -9.7,-6.4 -123.4004,-65.4 -123.4004,-65.4 l -15.3008,-15.2 v 140.299 c 23.9,-14.6 50.1016,-27.699 83.6016,-31.199 37.5,-4 83.4992,4.3 144.1992,33.1 V 85.808562 c -51.7,-22.99 -93.2992,-32.889 -127.1992,-33.689 -1.3,0 -2.5012,-0.11 -3.7012,-0.1 z m -230.7988,1.029 c -30.899997,2.99 -67.859997,13.06 -112.2499969250853,32.76 V 329.20956 C 60.799993,300.40956 106.74999,292.10956 144.24999,296.10956 c 33,5.20001 58.0996,15.799 83.5996,31.19901 v -158.599 c -38.6,-38.5 -77.0996,-77.101008 -115.5996,-115.661008 z m 48.7988,3.551 -9.9004,9.891 123,123.018998 9.9004,-9.9 z m -127.943397,25.049 c 6.3532,0.01 12.8605,3.14 17.2559,9.865 5.5677,-7.759 14.5595,-10.749 22.3789,-9.215 8.4832,1.666 15.6052,8.874 15.2422,20.289998 -0.3427,10.79201 -7.7887,17.926 -15.7637,24.867 -7.9745,6.941 -16.5876,13.848 -20.5215,24.138 l -1.3554,3.545 -1.4199,-3.519 c -4.151,-10.281 -13.0546,-16.87 -21.129,-23.664 -4.0365,-3.397 -7.8577,-6.844 -10.6679,-10.922 -2.8103,-4.077 -4.5734,-8.826 -4.3946,-14.539 0.3344,-10.725998 7.3125,-18.191998 15.6036,-20.263998 1.5544,-0.388 3.1588,-0.585 4.7714,-0.582 z M 389.18159,100.64856 c 6.3532,0.01 12.8605,3.14 17.2559,9.865 5.5677,-7.75899 14.5594,-10.748998 22.3789,-9.215 8.4831,1.666 15.6052,8.874 15.2422,20.29 -0.3427,10.79201 -7.7887,17.926 -15.7637,24.867 -7.9746,6.941 -16.5876,13.848 -20.5215,24.138 l -1.3555,3.545 -1.4199,-3.519 c -4.1509,-10.281 -13.0545,-16.87 -21.1289,-23.664 -4.0365,-3.397 -7.8557,-6.844 -10.666,-10.922 -2.8102,-4.077 -4.5733,-8.826 -4.3945,-14.539 0.3343,-10.726 7.3125,-18.192 15.6035,-20.264 1.5544,-0.388 3.1569,-0.585 4.7695,-0.582 z m -252,53.691 c 6.3532,0.01 12.8605,3.141 17.2559,9.866 5.5677,-7.76 14.5594,-10.75 22.3789,-9.215 8.4831,1.666 15.6052,8.873 15.2422,20.289 -0.3427,10.793 -7.7887,17.927 -15.7637,24.867 -7.9746,6.941 -16.5876,13.85 -20.5215,24.141 l -1.3555,3.545 -1.4199,-3.52 c -4.1509,-10.28 -13.0545,-16.87 -21.1289,-23.664 -4.0365,-3.397 -7.8557,-6.844 -10.666,-10.922 -2.8102,-4.077 -4.5734,-8.828 -4.3945,-14.541 0.3343,-10.725 7.3125,-18.191 15.6035,-20.263 1.5544,-0.389 3.1569,-0.586 4.7695,-0.583 z m 179.7676,17.87 -27.5,27.5 55.0996,27.599 z m -274.460897,39.976 v 0 c 6.3532,0.01 12.8604,3.142 17.2558,9.867 5.5677,-7.759 14.5595,-10.749 22.3789,-9.214 8.4832,1.665 15.6052,8.871 15.2422,20.287 -0.3426,10.792 -7.7887,17.928 -15.7636,24.869 -7.9746,6.941 -16.5896,13.848 -20.5235,24.138 l -1.3535,3.545 -1.4199,-3.519 c -4.151,-10.281 -13.0546,-16.87 -21.1289,-23.664 -4.0366,-3.397 -7.8578,-6.844 -10.668,-10.922 -2.8103,-4.077 -4.5733,-8.826 -4.3945,-14.539 0.3343,-10.726 7.3125,-18.194 15.6035,-20.266 1.5544,-0.388 3.1569,-0.585 4.7695,-0.582 z m 367.769497,13.233 v 0 c 6.3532,0.01 12.8604,3.14 17.2558,9.865 5.5677,-7.76 14.5575,-10.749 22.377,-9.215 8.4831,1.666 15.6072,8.873 15.2441,20.289 -0.3426,10.793 -7.7887,17.927 -15.7636,24.867 -7.9746,6.941 -16.5896,13.849 -20.5235,24.139 l -1.3535,3.545 -1.4199,-3.52 c -4.1509,-10.28 -13.0545,-16.87 -21.1289,-23.664 -4.0366,-3.396 -7.8577,-6.844 -10.668,-10.922 -2.8102,-4.077 -4.5733,-8.826 -4.3945,-14.539 0.3343,-10.725 7.3125,-18.191 15.6035,-20.263 1.5544,-0.389 3.1569,-0.585 4.7695,-0.582 z m -285.5078,88.39 c -31.999997,0.3 -71.849997,9.8 -124.7499969250853,36 v 42.5 C 60.799993,363.50856 106.74999,355.20956 144.24999,359.20956 c 18.6,2 34.8988,6.9 49.7988,13.3 -4.7,6.1 -9.3004,13.3 -13.9004,21.7 h 117.2012 c -6,-8.2 -11.8012,-15.4 -17.7012,-21.6 15,-6.5 31.4016,-11.4 50.1016,-13.4 37.5,-4 83.4992,4.299 144.1992,33.099 v -42.5 c -53.1,-26.3 -93.0992,-35.9 -125.1992,-36 h -3.1016 c -4.8,0.1 -9.3984,0.401 -13.8984,0.901 -34,3.6 -59.6016,18 -85.6016,34.4 -5.7,-0.8 -12.9988,-1.8 -18.2988,-0.9 -27.2,-16.2 -58.2,-30.4 -85.5,-33.5 -5.6,-0.6 -11.4996,-0.901 -17.5996,-0.901 z" />
</svg>
