<?xml version="1.0" encoding="UTF-8" standalone="no"?>
<svg
   viewBox="0 0 512 512"
   version="1.1"
   id="svg1"
   sodipodi:docname="archive-register.svg"
   inkscape:version="1.4 (e7c3feb1, 2024-10-09)"
   xmlns:inkscape="http://www.inkscape.org/namespaces/inkscape"
   xmlns:sodipodi="http://sodipodi.sourceforge.net/DTD/sodipodi-0.dtd"
   xmlns="http://www.w3.org/2000/svg"
   xmlns:svg="http://www.w3.org/2000/svg">
  <defs
     id="defs1" />
  <sodipodi:namedview
     id="namedview1"
     pagecolor="#ffffff"
     bordercolor="#666666"
     borderopacity="1.0"
     inkscape:showpageshadow="2"
     inkscape:pageopacity="0.0"
     inkscape:pagecheckerboard="0"
     inkscape:deskcolor="#d1d1d1"
     inkscape:zoom="0.8125"
     inkscape:cx="249.23077"
     inkscape:cy="224.61539"
     inkscape:window-width="1104"
     inkscape:window-height="732"
     inkscape:window-x="2009"
     inkscape:window-y="387"
     inkscape:window-maximized="0"
     inkscape:current-layer="svg1" />
  <path
     id="path1"
     d="M 168.80078 32.890625 L 136.19922 65.419922 L 157.5 86.589844 L 190 54.080078 L 168.80078 32.890625 z M 202.69922 66.849609 L 192.80078 76.759766 L 315.80078 199.80078 L 325.69922 189.90039 L 202.69922 66.849609 z M 362.09961 84.910156 C 358.39961 84.910156 354.69922 85.010936 351.19922 85.210938 C 319.29922 86.990938 294.50039 96.969605 272.90039 111.59961 L 338.40039 177.19922 C 341.90039 184.49922 390.40039 273.4 403.90039 300.5 C 394.20039 294.1 280.5 235.09961 280.5 235.09961 L 265.19922 219.90039 L 265.19922 360.19922 C 289.09922 345.59922 315.30078 332.5 348.80078 329 C 386.30078 325 432.3 333.29961 493 362.09961 L 493 118.69922 C 441.3 95.709215 399.70078 85.809766 365.80078 85.009766 C 364.50078 85.009766 363.29961 84.900156 362.09961 84.910156 z M 131.30078 85.939453 C 100.40078 88.929453 63.440781 98.999215 19.050781 118.69922 L 19.050781 362.09961 C 79.850781 333.29961 125.80078 325 163.30078 329 C 196.30078 334.2 221.40039 344.79922 246.90039 360.19922 L 246.90039 201.59961 C 208.30039 163.09961 169.80078 124.49945 131.30078 85.939453 z M 180.09961 89.490234 L 170.19922 99.380859 L 293.19922 222.40039 L 303.09961 212.5 L 180.09961 89.490234 z M 52.15625 114.53906 C 58.50945 114.55195 65.016679 117.67933 69.412109 124.4043 C 74.979799 116.64472 83.971556 113.655 91.791016 115.18945 C 100.27416 116.85531 107.39622 124.06287 107.0332 135.47852 C 106.69054 146.27123 99.244511 153.40533 91.269531 160.3457 C 83.294961 167.28691 74.681897 174.19398 70.748047 184.48438 L 69.392578 188.0293 L 67.972656 184.50977 C 63.821736 174.22937 54.91812 167.6397 46.84375 160.8457 C 42.80719 157.44912 38.986031 154.00156 36.175781 149.92383 C 33.365531 145.84651 31.60244 141.09759 31.78125 135.38477 C 32.11559 124.65942 39.093746 117.19322 47.384766 115.12109 C 48.939176 114.73269 50.54362 114.53606 52.15625 114.53906 z M 408.23242 133.53906 C 414.58562 133.55195 421.09285 136.67933 425.48828 143.4043 C 431.05597 135.64472 440.04773 132.655 447.86719 134.18945 C 456.35033 135.85531 463.4724 143.06287 463.10938 154.47852 C 462.76672 165.27123 455.32068 172.40533 447.3457 179.3457 C 439.37113 186.28691 430.75807 193.19398 426.82422 203.48438 L 425.46875 207.0293 L 424.04883 203.50977 C 419.89791 193.22937 410.99429 186.6397 402.91992 179.8457 C 398.88336 176.44912 395.06416 173.00156 392.25391 168.92383 C 389.44366 164.84651 387.68057 160.09758 387.85938 154.38477 C 388.19371 143.65942 395.17186 136.19322 403.46289 134.12109 C 405.0173 133.73269 406.61979 133.53606 408.23242 133.53906 z M 156.23242 187.23047 C 162.58563 187.24336 169.09285 190.37073 173.48828 197.0957 C 179.05596 189.33612 188.04773 186.34641 195.86719 187.88086 C 204.35033 189.54672 211.4724 196.75428 211.10938 208.16992 C 210.76671 218.96264 203.32068 226.09674 195.3457 233.03711 C 187.37113 239.97831 178.75807 246.88735 174.82422 257.17773 L 173.46875 260.72266 L 172.04883 257.20312 C 167.89791 246.92272 158.99428 240.33306 150.91992 233.53906 C 146.88336 230.14248 143.06416 226.69492 140.25391 222.61719 C 137.44366 218.53988 135.68054 213.78898 135.85938 208.07617 C 136.19371 197.35082 143.17187 189.88463 151.46289 187.8125 C 153.0173 187.4241 154.61979 187.22747 156.23242 187.23047 z M 336 205.09961 L 308.5 232.59961 L 363.59961 260.19922 L 336 205.09961 z M 61.539062 245.07617 L 61.541016 245.07617 C 67.89422 245.08906 74.401445 248.2184 78.796875 254.94336 C 84.364565 247.18379 93.356323 244.19407 101.17578 245.72852 C 109.65892 247.39438 116.78099 254.59998 116.41797 266.01562 C 116.07531 276.80834 108.62928 283.9444 100.6543 290.88477 C 92.679725 297.82598 84.064709 304.73306 80.130859 315.02344 L 78.777344 318.56836 L 77.357422 315.04883 C 73.206502 304.76843 64.302885 298.17876 56.228516 291.38477 C 52.191956 287.98818 48.370796 284.54062 45.560547 280.46289 C 42.750298 276.38557 40.987205 271.63665 41.166016 265.92383 C 41.500352 255.19848 48.478509 247.73033 56.769531 245.6582 C 58.323942 245.26981 59.926434 245.07317 61.539062 245.07617 z M 429.30859 258.30859 L 429.31055 258.30859 C 435.66375 258.32149 442.17098 261.44887 446.56641 268.17383 C 452.1341 260.41426 461.1239 257.42453 468.94336 258.95898 C 477.4265 260.62484 484.55052 267.8324 484.1875 279.24805 C 483.84484 290.04077 476.39881 297.17486 468.42383 304.11523 C 460.44926 311.05644 451.83424 317.96353 447.90039 328.25391 L 446.54688 331.79883 L 445.12695 328.2793 C 440.97603 317.9989 432.07242 311.40922 423.99805 304.61523 C 419.96149 301.21864 416.14033 297.77109 413.33008 293.69336 C 410.51983 289.61604 408.75674 284.86712 408.93555 279.1543 C 409.26989 268.42895 416.24804 260.96276 424.53906 258.89062 C 426.09347 258.50224 427.69596 258.30559 429.30859 258.30859 z M 143.80078 346.69922 C 111.80078 346.99922 71.950781 356.49922 19.050781 382.69922 L 19.050781 425.19922 C 79.850781 396.39922 125.80078 388.09961 163.30078 392.09961 C 181.90078 394.09961 198.19961 399.00039 213.09961 405.40039 C 208.39961 411.50039 203.79922 418.69961 199.19922 427.09961 L 316.40039 427.09961 C 310.40039 418.89961 304.59922 411.7 298.69922 405.5 C 313.69922 399 330.10078 394.09961 348.80078 392.09961 C 386.30078 388.09961 432.3 396.39922 493 425.19922 L 493 382.69922 C 439.9 356.39922 399.90078 346.79922 367.80078 346.69922 L 364.69922 346.69922 C 359.89922 346.79922 355.30078 347.09961 350.80078 347.59961 C 316.80078 351.19961 291.19922 365.6 265.19922 382 C 259.49922 381.2 252.20039 380.19961 246.90039 381.09961 C 219.70039 364.89961 188.70039 350.69961 161.40039 347.59961 C 155.80039 346.99961 149.90078 346.69922 143.80078 346.69922 z " />
</svg>
